<svg width="185" height="17" viewBox="0 0 185 17" fill="none" xmlns="http://www.w3.org/2000/svg">
<path d="M0.768 3.82656H4.08C5.832 3.82656 6.984 4.87056 6.984 6.50256C6.984 8.12256 5.832 9.17856 4.08 9.17856H2.148V12.2266H0.768V3.82656ZM2.148 5.02656V7.97856H3.96C4.944 7.97856 5.58 7.40256 5.58 6.50256C5.58 5.59056 4.956 5.02656 3.972 5.02656H2.148ZM10.5244 12.2986C8.65238 12.2986 7.39238 11.0386 7.39238 9.15456C7.39238 7.28256 8.65238 6.01056 10.5244 6.01056C12.3964 6.01056 13.6564 7.28256 13.6564 9.15456C13.6564 11.0386 12.3964 12.2986 10.5244 12.2986ZM10.5244 11.1946C11.6164 11.1946 12.3364 10.3426 12.3364 9.15456C12.3364 7.96656 11.6164 7.11456 10.5244 7.11456C9.43238 7.11456 8.72438 7.96656 8.72438 9.15456C8.72438 10.3426 9.43238 11.1946 10.5244 11.1946ZM13.9347 6.08256H15.3027L16.7067 10.7866L18.1107 6.08256H19.2987L20.6427 10.7866L22.0947 6.08256H23.4147L21.3747 12.2266H19.9827L18.6867 8.05056L17.3427 12.2266L15.9387 12.2386L13.9347 6.08256ZM23.6932 9.16656C23.6932 7.25856 24.9052 6.01056 26.6812 6.01056C28.4572 6.01056 29.6812 7.13856 29.7172 8.93856C29.7172 9.09456 29.7052 9.26256 29.6812 9.43056H25.0492V9.50256C25.1092 10.5586 25.7452 11.2426 26.7652 11.2426C27.5572 11.2426 28.1332 10.8466 28.3132 10.1626H29.6092C29.3932 11.3746 28.3732 12.2986 26.8612 12.2986C24.9172 12.2986 23.6932 11.0506 23.6932 9.16656ZM25.0972 8.48256H28.3972C28.2892 7.57056 27.6292 7.05456 26.7292 7.05456C25.9012 7.05456 25.1932 7.60656 25.0972 8.48256ZM33.8729 6.08256H34.1609V7.29456H33.5849C32.4329 7.29456 32.0609 8.19456 32.0609 9.14256V12.2266H30.7649V6.08256H31.9169L32.0609 7.00656C32.3729 6.49056 32.8649 6.08256 33.8729 6.08256ZM34.4627 9.16656C34.4627 7.25856 35.6747 6.01056 37.4507 6.01056C39.2267 6.01056 40.4507 7.13856 40.4867 8.93856C40.4867 9.09456 40.4747 9.26256 40.4507 9.43056H35.8187V9.50256C35.8787 10.5586 36.5147 11.2426 37.5347 11.2426C38.3267 11.2426 38.9027 10.8466 39.0827 10.1626H40.3787C40.1627 11.3746 39.1427 12.2986 37.6307 12.2986C35.6867 12.2986 34.4627 11.0506 34.4627 9.16656ZM35.8667 8.48256H39.1667C39.0587 7.57056 38.3987 7.05456 37.4987 7.05456C36.6707 7.05456 35.9627 7.60656 35.8667 8.48256ZM46.2024 3.82656H47.4984V12.2266H46.3704L46.2144 11.3026C45.8184 11.8426 45.1824 12.2986 44.2104 12.2986C42.5424 12.2986 41.3064 11.1226 41.3064 9.15456C41.3064 7.25856 42.5424 6.01056 44.2104 6.01056C45.1464 6.01056 45.8064 6.39456 46.2024 6.93456V3.82656ZM44.4264 11.2066C45.5064 11.2066 46.2144 10.3666 46.2144 9.17856C46.2144 7.95456 45.5064 7.11456 44.4264 7.11456C43.3464 7.11456 42.6384 7.95456 42.6384 9.15456C42.6384 10.3666 43.3464 11.2066 44.4264 11.2066ZM55.1232 6.01056C56.8032 6.01056 58.0272 7.17456 58.0272 9.15456C58.0272 11.0386 56.8032 12.2986 55.1232 12.2986C54.1632 12.2986 53.5032 11.8906 53.1192 11.3386L52.9632 12.2266H51.8352V3.82656H53.1312V6.99456C53.5392 6.44256 54.1752 6.01056 55.1232 6.01056ZM54.9072 11.2066C55.9872 11.2066 56.7072 10.3666 56.7072 9.15456C56.7072 7.95456 55.9872 7.11456 54.9072 7.11456C53.8272 7.11456 53.1192 7.95456 53.1192 9.14256C53.1192 10.3546 53.8272 11.2066 54.9072 11.2066ZM58.2193 6.08256H59.5993L61.3153 10.8226L62.9833 6.08256H64.3633L61.5793 13.1866C61.1953 14.1826 60.9313 14.6266 60.0313 14.6266H58.6393V13.4866H59.5513C60.0553 13.4866 60.1633 13.3666 60.3673 12.8626L60.6193 12.2746L58.2193 6.08256Z" fill="#161616"/>
<path d="M75.842 12.0256H74L79.4287 3.22656L81.2708 3.22656L75.842 12.0256Z" fill="#161616"/>
<path d="M84.8714 12.0256H86.7135L81.2847 3.22656L79.4427 3.22656L84.8714 12.0256Z" fill="#161616"/>
<path d="M98.6469 12.1023L98.6333 6.33694L95.5137 11.1083H94.7271L91.6075 6.41149V12.1023H89.9257V3.40455H91.3769L95.1475 9.16992L98.8503 3.40455H100.302L100.315 12.1023H98.6469Z" fill="#161616"/>
<path d="M112.822 12.1023L112.808 6.33694L109.688 11.1083H108.902L105.782 6.41149V12.1023H104.1V3.40455H105.552L109.322 9.16992L113.025 3.40455H114.476L114.49 12.1023H112.822Z" fill="#161616"/>
<path d="M125.396 10.7479V12.1023H118.275V3.40455H125.206V4.75892H120.038V7.02033H124.623V8.34985H120.038V10.7479H125.396Z" fill="#161616"/>
<path d="M134.794 12.1023L132.854 9.55511C132.773 9.56339 132.651 9.56753 132.488 9.56753H130.345V12.1023H128.582V3.40455H132.488C133.311 3.40455 134.025 3.52881 134.631 3.77731C135.246 4.02582 135.716 4.38201 136.042 4.8459C136.367 5.30978 136.53 5.86063 136.53 6.49847C136.53 7.15287 136.354 7.71616 136.001 8.18832C135.658 8.66048 135.16 9.01253 134.509 9.24447L136.693 12.1023H134.794ZM134.753 6.49847C134.753 5.94347 134.554 5.51687 134.157 5.21866C133.759 4.92045 133.175 4.77134 132.407 4.77134H130.345V8.23802H132.407C133.175 8.23802 133.759 8.08892 134.157 7.79071C134.554 7.48422 134.753 7.05347 134.753 6.49847Z" fill="#161616"/>
<path d="M147.767 4.77134H144.621V3.40455H152.677V4.77134H149.53V12.1023H147.767V4.77134Z" fill="#161616"/>
<path d="M162.342 10.7479V12.1023H155.221V3.40455H162.152V4.75892H156.984V7.02033H161.569V8.34985H156.984V10.7479H162.342Z" fill="#161616"/>
<path d="M169.883 12.2266C168.924 12.2266 168.056 12.036 167.279 11.655C166.51 11.2657 165.904 10.7314 165.461 10.0521C165.027 9.37287 164.81 8.60664 164.81 7.75343C164.81 6.90022 165.032 6.13399 165.475 5.45474C165.918 4.77549 166.524 4.24534 167.292 3.86429C168.07 3.47496 168.938 3.2803 169.896 3.2803C170.674 3.2803 171.384 3.40455 172.026 3.65306C172.668 3.90157 173.21 4.2619 173.653 4.73407L172.514 5.71567C171.827 5.03642 170.982 4.69679 169.978 4.69679C169.327 4.69679 168.744 4.82933 168.228 5.0944C167.713 5.35119 167.31 5.71153 167.021 6.17541C166.732 6.63929 166.587 7.1653 166.587 7.75343C166.587 8.34156 166.732 8.86757 167.021 9.33145C167.31 9.79533 167.713 10.1598 168.228 10.4249C168.744 10.6817 169.327 10.8101 169.978 10.8101C170.982 10.8101 171.827 10.4663 172.514 9.77877L173.653 10.7728C173.21 11.245 172.663 11.6053 172.012 11.8538C171.37 12.1023 170.661 12.2266 169.883 12.2266Z" fill="#161616"/>
<path d="M185 3.40455V12.1023H183.237V8.3747H178.327V12.1023H176.564V3.40455H178.327V6.99548H183.237V3.40455H185Z" fill="#161616"/>
</svg>
