<svg width="29" height="28" viewBox="0 0 29 28" fill="none" xmlns="http://www.w3.org/2000/svg">
<circle cx="14.3203" cy="14" r="14" fill="white"/>
<mask id="mask0_4797_27069" style="mask-type:alpha" maskUnits="userSpaceOnUse" x="0" y="0" width="29" height="28">
<circle cx="14.3203" cy="14" r="14" fill="black"/>
</mask>
<g mask="url(#mask0_4797_27069)">
<path d="M5.45 6.26719C5.19297 6.32734 5.35703 6.31641 5.14375 6.34375C4.23047 6.54063 4.90859 6.71562 5.45 6.26719ZM21.5117 6.63359C21.5773 6.58984 21.807 6.36563 21.0906 6.14688C21.1344 6.37109 20.943 6.34922 20.943 6.475C21.4734 6.95625 21.6922 7.79297 22.3703 7.96797C22.5016 7.36641 21.7688 7.07109 21.5117 6.63359ZM4.96328 6.09219C5.04531 6.57891 5.41172 5.57812 5.41719 5.22266C5.275 5.30469 5.13281 5.38672 4.98516 5.45234C5.32969 5.62734 5.02891 5.81328 4.65703 6.09219C3.90234 7.03281 5.3625 5.35938 4.96328 6.09219ZM14.3203 0C6.5875 0 0.320312 6.26719 0.320312 14C0.320312 21.7273 6.5875 28 14.3203 28C22.0531 28 28.3203 21.7273 28.3203 14C28.3203 6.26719 22.0531 0 14.3203 0ZM14.6922 4.69219L14.7578 4.71406C14.4953 5.05312 16.125 6.04297 14.9547 6.125C13.8609 6.43672 15.4141 5.84062 14.5664 5.94453C15.0148 5.32109 14.2109 5.31016 14.6922 4.69219ZM8.05312 5.58906C7.65937 5.26094 6.42344 6.0375 6.85547 5.85156C7.92734 5.43047 6.92656 5.89531 7.17813 6.39844C6.94844 6.87422 7.10156 5.92812 6.53281 6.49141C6.12266 6.58437 5.11641 7.51406 5.24219 7.22969C5.20937 7.67266 4.04453 8.19766 3.88594 8.93594C3.50312 9.95859 3.79297 8.89766 3.72188 8.49844C3.175 7.80391 2.17969 9.67422 2.475 10.4125C2.97266 9.5375 2.93438 10.3195 2.57344 10.7078C2.93984 11.3805 2.23984 12.2555 2.93438 12.7531C3.24062 12.8242 3.85313 11.725 3.58516 12.868C3.77109 11.8781 4.09922 13.1031 4.62969 12.8297C4.6625 13.3492 4.98516 13.1086 5.05625 13.7375C5.94219 13.6719 6.75156 15.1703 5.69609 15.4547C5.85469 15.4109 6.16641 15.6898 6.52734 15.4766C7.13984 15.9633 8.75313 16.0234 8.79688 17.2266C7.68672 17.757 8.52344 19.2117 7.56094 19.7312C6.45625 19.5672 7.18359 21.093 6.71875 20.918C6.90469 22.0172 5.60313 20.7758 6.10625 21.3828C7.03047 21.9516 5.70156 21.8367 6.11719 22.2523C5.65234 22.1539 6.40703 23.1164 6.53281 23.4719C7.2 24.5547 5.95859 23.2313 5.59219 22.8703C5.24219 22.1703 4.41641 20.8305 4.18672 19.7312C4.05547 18.1344 2.81953 17.0625 2.53516 15.5039C2.25078 14.6344 3.31719 13.2398 2.74297 12.7531C2.24531 12.3648 2.44766 11.0359 2.15234 10.3359C2.89062 7.13672 5.23672 4.44063 8.05312 2.84375C7.76328 3.05703 9.71016 2.29141 9.48594 2.47734C9.42578 2.61406 10.6234 1.95781 11.3453 1.85938C11.2688 1.87031 9.46953 2.51563 9.96719 2.42813C9.19609 2.80547 9.89062 2.59219 10.2734 2.40078C9.50781 2.96406 8.91719 2.80547 8.04766 3.30313C7.17266 3.53281 7.35312 4.44063 6.72969 4.89453C7.09609 4.96016 8.01484 3.94844 8.55078 3.59297C9.78125 2.99687 7.92734 4.67578 9.09766 3.95391C8.70391 4.32031 8.78594 4.90547 8.54531 5.06953C8.425 5.03672 9.02109 5.35391 8.05312 5.58906ZM9.96719 3.07344C9.84141 3.24297 9.66641 3.60938 9.5625 3.38516C9.42031 3.45625 9.36563 3.7625 9.09766 3.51641C9.25625 3.40156 9.42031 3.12812 9.10859 3.29766C9.25078 3.14453 10.5195 2.7125 10.4484 2.54844C10.6727 2.40625 10.6508 2.33516 10.3938 2.42266C10.2625 2.37891 10.7055 2.00703 11.2961 1.95781C11.3781 1.95781 11.4109 2.0125 11.2633 1.99609C10.3719 2.26953 10.7547 2.19297 11.3563 1.99609C11.1266 2.12734 10.968 2.16563 10.9297 2.22578C11.5312 2.00703 10.8969 2.38437 11.0336 2.35703C10.8641 2.44453 11.0609 2.47187 10.7328 2.59766C10.793 2.54844 10.1969 2.95312 10.5523 2.83281C10.2078 3.16094 10.0547 3.16641 9.96719 3.07344ZM10.4922 3.85547C10.5031 3.33047 11.2578 2.99688 11.1648 2.96953C12.0945 2.53203 10.8422 2.98594 11.575 2.59219C11.8484 2.56484 12.4281 1.68984 13.232 1.63516C14.118 1.36719 13.7078 1.65156 14.3641 1.4L14.2328 1.50938C14.118 1.52578 14.2602 1.72813 13.8445 2.03438C13.8008 2.51016 13.0516 2.29141 13.4234 2.8C13.1828 2.45547 12.8219 2.78906 13.2758 2.82187C12.7891 3.19375 11.657 3.25938 11.1156 3.87734C10.7656 4.38047 10.443 4.22188 10.4922 3.85547ZM14.3805 5.60547C14.0086 6.50234 13.6477 5.47422 14.3039 5.31016C14.468 5.39766 14.5336 5.425 14.3805 5.60547ZM12.9805 3.81172C12.8711 3.40703 12.9586 3.62031 13.6094 3.42891C14.0578 3.75156 13.2102 3.96484 12.9805 3.81172ZM23.1633 19.8625C22.6492 18.9766 23.7867 18.1562 24.1695 17.4125C24.1203 18.282 24.0109 19.1406 23.1633 19.8625ZM25.0992 9.73984C24.5414 9.78359 24.0383 9.91484 23.5352 9.59766C22.3758 8.32891 23.7484 11.0305 24.1313 9.92578C25.5094 10.4508 24.1094 12.7148 23.2398 12.4797C22.7531 11.4297 22.1516 10.2758 21.0906 9.76172C21.9055 10.6641 22.3102 11.7742 23.1852 12.5891C23.2453 13.7266 24.3992 12.1734 24.3281 13.0539C24.4375 14.5688 22.6164 15.4766 22.9336 16.9969C23.6117 18.3805 21.6266 18.632 21.8508 19.8734C21.0523 20.7648 20.1992 21.968 18.7664 21.7766C18.7664 21.0219 18.3836 20.382 18.2961 19.6055C17.5195 18.6211 19.1164 17.5656 18.1266 16.5375C16.9836 16.2805 18.3617 14.7055 17.1859 14.8531C16.4805 14.1477 15.4469 14.8312 14.4352 14.8367C13.1664 14.957 11.8594 13.2781 12.4227 12.0914C11.9742 10.8555 13.8445 10.4945 13.8938 9.40625C14.7906 8.65703 16.0648 8.75 17.2789 8.575C17.1914 9.44453 18.1102 9.45 18.8047 9.73984C19.193 8.79922 20.4016 9.89297 21.2273 9.29688C21.5117 7.90781 20.4234 8.74453 19.8 8.30156C19.0453 7.19688 21.4133 7.73281 21.1672 7.15313C20.2484 7.14766 20.768 6.02109 20.1172 6.65C20.7023 6.75391 20.0133 7.21328 20.0297 6.68828C19.1437 6.43125 19.9969 7.69453 19.5484 7.81484C18.8648 7.53047 19.1875 8.1375 19.2586 8.23047C18.9633 8.87031 18.6023 7.28984 17.7656 7.33359C16.9344 6.57344 17.4375 7.67812 18.1594 7.85859C18.0063 7.90234 18.2469 8.53125 18.0555 8.26328C17.4594 7.44297 16.3273 6.89609 15.6547 7.90234C15.5836 8.84297 13.6695 9.11094 13.9758 8.01172C13.5273 6.87422 15.3648 7.97891 15.1953 7.07109C14.0141 6.28906 15.518 6.54062 15.9172 5.80781C16.825 5.83516 15.9555 5.06406 16.382 4.83984C16.3383 5.67656 17.0766 5.51797 17.6617 5.35938C17.5195 4.87813 18.0117 4.89453 17.7109 4.49531C19.0672 3.95391 16.6773 4.74687 17.1586 3.56016C16.5734 3.15547 16.9125 4.45156 17.1586 4.58828C17.175 4.9875 16.8359 5.47969 16.3711 4.64297C15.693 5.08594 15.7641 4.19453 15.7203 4.2875C15.6438 3.94297 16.2344 3.92656 16.2398 3.325C16.1906 2.94219 16.2016 2.73984 16.475 2.71797C16.4969 2.77266 17.5961 2.78906 17.9844 3.24297C16.9234 3.02969 17.8258 3.41797 18.3016 3.63672C17.793 3.2375 18.5039 3.63672 18.0883 3.18281C18.2523 3.21563 17.6344 2.55938 18.2688 3.13359C17.9242 2.72344 18.9414 2.84375 18.3398 2.5375C19.2203 2.78359 18.7008 2.55938 18.1813 2.33516C16.7484 1.48203 20.7133 3.48906 19.0945 2.59766C20.1281 2.82188 16.8852 1.79922 18.3617 2.24766C17.7984 2.00156 18.3453 2.13828 18.8539 2.29688C17.9406 2.0125 16.5734 1.48203 16.6281 1.46016C16.9453 1.48203 17.257 1.55313 17.5578 1.64062C18.493 1.91953 17.2898 1.575 17.5469 1.58047C20.7625 2.40625 23.5789 4.56094 25.2906 7.37734C25.6898 7.79844 26.7781 10.582 26.2094 9.34609C26.4664 10.3305 26.5047 11.3914 26.6414 12.3977C26.357 12.0805 26.0398 10.9102 25.7664 10.2594C25.6516 10.5109 25.5203 9.90391 25.0992 9.73984Z" fill="black"/>
</g>
</svg>
