<svg width="512" height="512" viewBox="0 0 512 512" fill="none" xmlns="http://www.w3.org/2000/svg">
<rect width="512" height="512" fill="#0E0E0E"/>
<path d="M105.354 261.036L109.448 233.235C109.489 233.017 109.499 232.886 109.525 232.711C111.914 216.488 180.017 213.08 261.639 225.099C343.26 237.117 407.49 260.012 405.101 276.235C405.076 276.41 405.046 276.623 405.024 276.759L400.933 304.544C403.277 288.322 339.062 265.438 257.468 253.424C175.847 241.405 107.743 244.813 105.354 261.036Z" fill="url(#paint0_radial_1972_8988)"/>
<path d="M156.608 356.74L117.744 356.74L232.284 154.088L271.151 154.088L156.608 356.74Z" fill="white"/>
<path d="M347.119 356.74L385.986 356.74L271.443 154.088L232.579 154.088L347.119 356.74Z" fill="white"/>
<g filter="url(#filter0_ddddd_1972_8988)">
<path d="M252.67 286.006C334.291 298.025 402.446 294.269 405.087 276.328L400.714 306.028C400.68 306.26 400.657 306.414 400.629 306.608C397.987 324.549 329.678 329.349 248.057 317.331C166.436 305.312 102.41 281.025 105.052 263.084C105.081 262.89 105.112 262.678 105.138 262.504L109.588 232.282C106.946 250.222 171.048 273.987 252.67 286.006Z" fill="white"/>
</g>
<defs>
<filter id="filter0_ddddd_1972_8988" x="1.97266" y="107.282" width="506.115" height="297.668" filterUnits="userSpaceOnUse" color-interpolation-filters="sRGB">
<feFlood flood-opacity="0" result="BackgroundImageFix"/>
<feColorMatrix in="SourceAlpha" type="matrix" values="0 0 0 0 0 0 0 0 0 0 0 0 0 0 0 0 0 0 127 0" result="hardAlpha"/>
<feOffset dy="-0.755676"/>
<feGaussianBlur stdDeviation="1.76897"/>
<feColorMatrix type="matrix" values="0 0 0 0 0 0 0 0 0 0 0 0 0 0 0 0 0 0 0.0930055 0"/>
<feBlend mode="normal" in2="BackgroundImageFix" result="effect1_dropShadow_1972_8988"/>
<feColorMatrix in="SourceAlpha" type="matrix" values="0 0 0 0 0 0 0 0 0 0 0 0 0 0 0 0 0 0 127 0" result="hardAlpha"/>
<feOffset dy="-1.91116"/>
<feGaussianBlur stdDeviation="4.47386"/>
<feColorMatrix type="matrix" values="0 0 0 0 0 0 0 0 0 0 0 0 0 0 0 0 0 0 0.133113 0"/>
<feBlend mode="normal" in2="effect1_dropShadow_1972_8988" result="effect2_dropShadow_1972_8988"/>
<feColorMatrix in="SourceAlpha" type="matrix" values="0 0 0 0 0 0 0 0 0 0 0 0 0 0 0 0 0 0 127 0" result="hardAlpha"/>
<feOffset dy="-3.89859"/>
<feGaussianBlur stdDeviation="9.12625"/>
<feColorMatrix type="matrix" values="0 0 0 0 0 0 0 0 0 0 0 0 0 0 0 0 0 0 0.166887 0"/>
<feBlend mode="normal" in2="effect2_dropShadow_1972_8988" result="effect3_dropShadow_1972_8988"/>
<feColorMatrix in="SourceAlpha" type="matrix" values="0 0 0 0 0 0 0 0 0 0 0 0 0 0 0 0 0 0 127 0" result="hardAlpha"/>
<feOffset dy="-8.03036"/>
<feGaussianBlur stdDeviation="18.7983"/>
<feColorMatrix type="matrix" values="0 0 0 0 0 0 0 0 0 0 0 0 0 0 0 0 0 0 0.206994 0"/>
<feBlend mode="normal" in2="effect3_dropShadow_1972_8988" result="effect4_dropShadow_1972_8988"/>
<feColorMatrix in="SourceAlpha" type="matrix" values="0 0 0 0 0 0 0 0 0 0 0 0 0 0 0 0 0 0 127 0" result="hardAlpha"/>
<feOffset dy="-22"/>
<feGaussianBlur stdDeviation="51.5"/>
<feColorMatrix type="matrix" values="0 0 0 0 0 0 0 0 0 0 0 0 0 0 0 0 0 0 0.3 0"/>
<feBlend mode="normal" in2="effect4_dropShadow_1972_8988" result="effect5_dropShadow_1972_8988"/>
<feBlend mode="normal" in="SourceGraphic" in2="effect5_dropShadow_1972_8988" result="shape"/>
</filter>
<radialGradient id="paint0_radial_1972_8988" cx="0" cy="0" r="1" gradientUnits="userSpaceOnUse" gradientTransform="translate(255.421 260.525) rotate(10.8674) scale(162.909 596.5)">
<stop stop-color="#9B9B9B"/>
<stop offset="1" stop-color="#878686"/>
</radialGradient>
</defs>
</svg>
