<svg xmlns="http://www.w3.org/2000/svg" preserveAspectRatio="xMidYMid meet" viewBox="0 0.12 495.61 551.38" xmlns:v="https://vecta.io/nano"><path d="M124.6 3.1L1.9 308.3 0 313.2l3.2-2c1.8-1.1 25.6-14.4 52.8-29.7 53.3-29.9 62.8-35.6 79-47.3 68.7-49.4 119-116.8 146.5-196.5 2.6-7.6 4.6-13.9 4.4-14.1s-35-5.4-77.4-11.5L128.8.3c-2.4-.5-3-.1-4.2 2.8zm189.8 58.3c-13.8 37.5-15 41.5-16.4 55-1.9 17.8 1.1 34.7 9 51.2 8 16.5 19.7 29.6 34.6 38.7 6.3 3.8 130.3 61.1 131 60.5.5-.6 23.4-212.1 23-212.6-.3-.2-37.5-5.7-82.8-12.3l-84.5-12.2c-2-.4-3.1 2.1-13.9 31.7zm-67.9 189.3c-45 4-93.5 19.3-132 41.6-9 5.2-85.6 53.6-87.3 55.2-1 .9 43 22.7 207.5 102.7l209.1 101.3c.8-.7 25-244 24.4-244.6-1.5-1.3-64.3-30-73.7-33.7-28.6-11.3-60.8-19.1-91.4-22.2-9.5-.9-47.3-1.1-56.6-.3z"/></svg>