<svg width="66" height="65" viewBox="0 0 66 65" fill="none" xmlns="http://www.w3.org/2000/svg">
<path d="M1.86116 26.9338L15.6697 13.1243C16.4368 12.3571 17.3409 11.8091 18.3821 11.4803C19.4232 11.1515 20.4917 11.0967 21.5876 11.3159L25.8617 12.2201C22.9027 15.7273 20.5739 18.9057 18.8752 21.7553C17.1766 24.6048 15.5327 28.0572 13.9436 32.1124L1.86116 26.9338ZM18.7108 34.414C19.9711 30.4684 21.684 26.742 23.8496 23.2348C26.0151 19.7277 28.631 16.4397 31.6974 13.3709C36.5194 8.54853 42.0264 4.94601 48.2183 2.56332C54.4102 0.180627 60.1912 -0.546017 65.5611 0.383385C66.4927 5.75375 65.7803 11.5351 63.4241 17.7275C61.0679 23.9198 57.4788 29.4272 52.6568 34.2496C49.643 37.2636 46.3552 39.8808 42.7935 42.1013C39.2318 44.3218 35.4783 46.0611 31.533 47.3193L18.7108 34.414ZM41.3962 24.55C42.6565 25.8104 44.2051 26.4406 46.0418 26.4406C47.8786 26.4406 49.426 25.8104 50.6841 24.55C51.9422 23.2896 52.5724 21.7421 52.5746 19.9074C52.5768 18.0727 51.9466 16.5241 50.6841 15.2615C49.4216 13.9989 47.8742 13.3687 46.0418 13.3709C44.2094 13.3731 42.6609 14.0033 41.3962 15.2615C40.1316 16.5197 39.5014 18.0683 39.5058 19.9074C39.5102 21.7465 40.1403 23.294 41.3962 24.55ZM39.0948 64.088L33.8344 52.0047C37.8893 50.4155 41.3557 48.7715 44.2336 47.0727C47.1114 45.3739 50.3027 43.0449 53.8075 40.0857L54.6294 44.3601C54.8486 45.4561 54.7938 46.539 54.465 47.6086C54.1362 48.6783 53.5883 49.5957 52.8211 50.3607L39.0948 64.088ZM7.12155 44.9355C9.03939 43.0175 11.3682 42.0443 14.108 42.0158C16.8478 41.9873 19.1766 42.9331 21.0944 44.8533C23.0123 46.7735 23.9712 49.1025 23.9712 51.8403C23.9712 54.5781 23.0123 56.907 21.0944 58.8272C19.7246 60.1972 17.4374 61.3754 14.2329 62.3618C11.0285 63.3482 6.60318 64.225 0.957031 64.9922C1.72417 59.3478 2.6009 54.9365 3.58722 51.7581C4.57355 48.5797 5.75165 46.3055 7.12155 44.9355Z" fill="black"/>
</svg>
