<svg width="96" height="79" viewBox="0 0 96 79" fill="none" xmlns="http://www.w3.org/2000/svg">
<path d="M66.7113 43.376C62.9195 43.376 59.2845 44.8811 56.6014 47.5585C53.9185 50.2386 52.4079 53.8708 52.4024 57.6628C52.3969 61.4548 53.8965 65.0924 56.5712 67.7777C59.2458 70.4661 62.8752 71.9823 66.667 71.9933C70.4588 72.0042 74.0994 70.5128 76.7903 67.841C79.4815 65.1719 81.0032 61.5424 81.0196 57.7508C81.0362 53.9453 79.5365 50.2881 76.8508 47.5916C74.168 44.8922 70.5172 43.376 66.7113 43.376ZM66.7113 66.9856C65.8005 66.9856 65.0603 66.2453 65.0603 65.3345V56.0671C65.0603 55.1563 65.8005 54.416 66.7113 54.416C67.6221 54.416 68.3624 55.1563 68.3624 56.0671V65.3345C68.3624 66.2453 67.6221 66.9856 66.7113 66.9856ZM68.3293 51.1472C68.3293 52.058 67.5891 52.7983 66.6783 52.7983C65.7675 52.7983 65.0272 52.058 65.0272 51.1472V50.0466C65.0272 49.1357 65.7675 48.3955 66.6783 48.3955C67.5891 48.3955 68.3293 49.1357 68.3293 50.0466V51.1472Z" fill="black"/>
<path d="M50.1355 57.751C50.1135 53.6455 51.6242 49.6803 54.3703 46.6259C57.1137 43.5744 60.9 41.6537 64.9832 41.241C65.828 41.1612 66.4719 40.4485 66.4692 39.601V13.1737C66.4637 9.22503 63.2635 6.02517 59.315 6.01953H22.1346C18.186 6.02503 14.9861 9.22524 14.9805 13.1737V64.9054C14.986 68.8541 18.1862 72.0539 22.1346 72.0596H53.669C54.3322 72.0596 54.9321 71.6606 55.1907 71.047C55.4466 70.4333 55.3118 69.7262 54.8468 69.2528C51.8282 66.1847 50.1355 62.0543 50.1355 57.751ZM26.9557 36.2547C26.0448 36.2547 25.3046 35.5145 25.3046 34.6036C25.3046 33.6928 26.0448 32.9526 26.9557 32.9526H54.472C55.3828 32.9526 56.123 33.6928 56.123 34.6036C56.123 35.5145 55.3828 36.2547 54.472 36.2547H26.9557ZM44.0599 43.0678C44.0599 43.9786 43.3196 44.7188 42.4088 44.7188H26.9995C26.0887 44.7188 25.3484 43.9786 25.3484 43.0678C25.3484 42.157 26.0887 41.4168 26.9995 41.4168H42.4088C43.3196 41.4168 44.0599 42.157 44.0599 43.0678ZM26.9557 24.4886H42.365C43.2758 24.4886 44.016 25.2288 44.016 26.1396C44.016 27.0504 43.2758 27.7906 42.365 27.7906H26.9557C26.0448 27.7906 25.3046 27.0504 25.3046 26.1396C25.3046 25.2288 26.0448 24.4886 26.9557 24.4886ZM25.3046 17.6644C25.3046 16.7536 26.0448 16.0134 26.9557 16.0134H54.472C55.3828 16.0134 56.123 16.7536 56.123 17.6644C56.123 18.5752 55.3828 19.3155 54.472 19.3155H26.9557C26.5181 19.3155 26.0971 19.1421 25.789 18.8312C25.478 18.523 25.3046 18.1019 25.3046 17.6644Z" fill="black"/>
</svg>
