<svg width="96" height="79" viewBox="0 0 96 79" fill="none" xmlns="http://www.w3.org/2000/svg">
<g clip-path="url(#clip0_5574_97607)">
<path d="M60.1241 44.2615L60.0058 43.9952L51.5164 26.7209C51.5016 26.7061 51.4869 26.6765 51.4721 26.6469C51.4573 26.6026 51.4425 26.573 51.4277 26.5286L45.3491 14.1346C44.9202 13.2472 44.0624 12.7 43.0863 12.6556C42.1398 12.6261 41.208 13.0845 40.6904 13.9276L24.126 41.082L32.1863 55.5167L63.7771 61.2847C64.7828 61.4622 65.7441 61.0925 66.3653 60.279C66.9717 59.4508 67.0752 58.4303 66.6315 57.4986L60.1241 44.2615Z" fill="black"/>
<path d="M2.29752 57.2012C1.52845 57.6153 0.981256 58.2956 0.774153 59.1387C0.56705 59.9818 0.685415 60.8543 1.14389 61.579C1.95733 62.8805 3.62856 63.3981 5.0336 62.7769L5.96536 62.3776L2.66723 56.9941L2.29752 57.2012Z" fill="black"/>
<path d="M24.7625 58.3861L29.1698 56.212L21.7897 43.0049L4.82579 50.9469C4.33774 51.1688 3.98279 51.5681 3.83486 52.0709C3.68694 52.5738 3.76091 53.1063 4.02712 53.5499L4.48561 54.319L9.33663 62.2906L10.2092 63.7105C10.7121 64.5387 11.7326 64.8197 12.5903 64.4056L15.2377 63.0893C15.3117 63.0449 15.4004 63.0006 15.4744 62.971L24.5109 58.5045C24.6144 58.4601 24.6885 58.4157 24.7625 58.3861Z" fill="black"/>
<path d="M24.9258 61.5938L18.4775 64.8031L30.3386 77.4631C31.4627 78.6462 33.2522 78.8385 34.5981 77.9215C35.3819 77.3891 35.8848 76.5461 35.9883 75.5996C36.1067 74.6678 35.8109 73.7213 35.1749 73.0261L24.9258 61.5938Z" fill="black"/>
<path d="M65.389 34.7218C65.389 30.1518 61.662 26.4248 57.092 26.4248C56.2934 26.4248 55.5391 26.5283 54.8145 26.765L62.0171 41.3919C64.1172 39.8685 65.389 37.4283 65.389 34.7218Z" fill="black"/>
<path d="M88.8915 19.8436C88.5809 19.0893 87.7083 18.7344 86.954 19.045L71.868 25.2714C71.1138 25.582 70.7588 26.4546 71.0694 27.2089C71.306 27.7857 71.8532 28.1258 72.43 28.1258C72.6223 28.1258 72.8146 28.0963 72.992 28.0075L88.078 21.7811C88.8471 21.4557 89.202 20.5979 88.8915 19.8436Z" fill="black"/>
<path d="M72.3715 -0.330051C71.6025 -0.61106 70.7595 -0.226518 70.4637 0.542545L64.7549 15.8207C64.4739 16.5897 64.8584 17.4327 65.6275 17.7285C65.805 17.7877 65.9677 17.8172 66.1451 17.8172C66.7515 17.8172 67.3136 17.4475 67.5354 16.8559L73.2591 1.57782C73.5253 0.80876 73.1406 -0.0342569 72.3715 -0.330051Z" fill="black"/>
<path d="M94.3194 44.5713L78.8491 39.3801C78.08 39.1287 77.237 39.5428 76.9708 40.3119C76.7045 41.0809 77.1335 41.9239 77.9025 42.1902L93.3728 47.3814C93.5355 47.4406 93.6834 47.4553 93.8461 47.4553C94.4672 47.4553 95.044 47.0708 95.2511 46.4496C95.5025 45.6658 95.0884 44.8376 94.3194 44.5713Z" fill="black"/>
</g>
<defs>
<clipPath id="clip0_5574_97607">
<rect width="96" height="78" fill="white" transform="translate(0 0.0390625)"/>
</clipPath>
</defs>
</svg>
