<svg width="162" height="35" viewBox="0 0 162 35" fill="none" xmlns="http://www.w3.org/2000/svg">
<path d="M14.1427 28.0451H10L22.2095 7.22656L26.3526 7.22656L14.1427 28.0451Z" fill="#161616"/>
<path d="M34.4504 28.0451H38.5935L26.3837 7.22656L22.241 7.22656L34.4504 28.0451Z" fill="#161616"/>
<path d="M65.4322 28.2266L65.4017 14.5857L58.3857 25.8747H56.6164L49.6004 14.7621V28.2266H45.8178V7.64769H49.0818L57.562 21.2885L65.8898 7.64769H69.1538L69.1843 28.2266H65.4322Z" fill="#161616"/>
<path d="M97.3119 28.2266L97.2814 14.5857L90.2654 25.8747H88.4961L81.48 14.7621V28.2266H77.6975V7.64769H80.9615L89.4417 21.2885L97.7695 7.64769H101.033L101.064 28.2266H97.3119Z" fill="#161616"/>
<path d="M125.592 25.0221V28.2266H109.577V7.64769H125.165V10.8521H113.543V16.2026H123.853V19.3482H113.543V25.0221H125.592Z" fill="#161616"/>
<path d="M146.729 28.2266L142.367 22.1999C142.184 22.2195 141.91 22.2293 141.544 22.2293H136.724V28.2266H132.758V7.64769H141.544C143.394 7.64769 145.001 7.94167 146.363 8.52964C147.746 9.11761 148.804 9.96036 149.536 11.0579C150.268 12.1554 150.634 13.4588 150.634 14.9679C150.634 16.5162 150.237 17.8489 149.444 18.9661C148.671 20.0832 147.553 20.9162 146.089 21.4649L151 28.2266H146.729ZM146.638 14.9679C146.638 13.6548 146.19 12.6454 145.296 11.9399C144.401 11.2343 143.089 10.8815 141.361 10.8815H136.724V19.0837H141.361C143.089 19.0837 144.401 18.7309 145.296 18.0253C146.19 17.3002 146.638 16.281 146.638 14.9679Z" fill="#161616"/>
</svg>
